<svg xmlns="http://www.w3.org/2000/svg" viewBox="0 0 128 128">
  <rect width="128" height="128" rx="28" fill="#faf4ea"/>
  <path d="M61 18c-7 1-11 7-11 7h28s-4-6-11-7v-3h-6z" fill="#c79a3b"/>
  <path d="M23 66c2-32 28-55 64-55s62 23 64 55h10c-5 6-143 6-148 0z" transform="scale(.78) translate(8 8)" fill="#7a1f1f"/>
  <path d="M18 69c25 5 117 5 142 0" transform="scale(.78) translate(8 8)" fill="none" stroke="#c79a3b" stroke-width="5" stroke-linecap="round"/>
  <text x="35" y="86" font-family="Georgia,serif" font-size="70" font-weight="900" fill="#7a1f1f">H</text>
  <path d="M78 37h18c5 0 8 3 8 8v38H78z" fill="#c79a3b" stroke="#7a1f1f" stroke-width="3" stroke-linejoin="round"/>
  <path d="M78 83h26v22c0 9-5 15-13 15s-13-6-13-15z" fill="#c79a3b" stroke="#7a1f1f" stroke-width="3" stroke-linejoin="round"/>
  <circle cx="96" cy="46" r="3.5" fill="#7a1f1f"/>
  <circle cx="94" cy="94" r="3" fill="#7a1f1f"/>
  <circle cx="94" cy="106" r="3" fill="#7a1f1f"/>
</svg>
